# xmcd
#
# Track frame offsets:
#	150
#	13407
#	26055
#	37722
#	47865
#	60427
#	76597
#	86792
#	100640
#	110737
#	126915
#	136800
#	148472
#	158000
#	173820
#
# Disc length: 2480 seconds
#
# Revision: 0
# Processed by: cddbd v1.5.1PL0 Copyright (c) Steve Scherf et al.
# Submitted via: EasyCDDAExtractor 8.0.1.1
#
DISCID=c309ae0f
DTITLE=Piporro - Las Inmortales de Lalo Gonzàlez "Piporro"
DYEAR=1996
DGENRE=Country
TTITLE0=Chulas fronteras
TTITLE1=Agustìn Jaime
TTITLE2=El Ojo de Vidrio
TTITLE3=Las Isabeles
TTITLE4=El Sinaloense
TTITLE5=Simòn Blanco
TTITLE6=Arnulfo Gonzàlez
TTITLE7=El terror de las fronteras
TTITLE8=El Capiro
TTITLE9=El alazàn y el Rosillo/ Los caballos que corrieron
TTITLE10=Soy de Monterrey
TTITLE11=Melitòn (el abusòn)
TTITLE12=El sauce y la palma
TTITLE13=El cantador de Corridos
TTITLE14=Los contrabandistas (y los aduanales)
EXTD=
EXTT0=
EXTT1=
EXTT2=
EXTT3=
EXTT4=
EXTT5=
EXTT6=
EXTT7=
EXTT8=
EXTT9=
EXTT10=
EXTT11=
EXTT12=
EXTT13=
EXTT14=
PLAYORDER=
